<svg width="18" height="18" viewBox="0 0 18 18" fill="none" xmlns="http://www.w3.org/2000/svg">
<path fill-rule="evenodd" clip-rule="evenodd" d="M8.57895 10.5243L6.05263 13L8.57895 15.5263H1V13.8421C1 11.6022 5.48842 10.4737 7.73684 10.4737C8.00632 10.4737 8.25053 10.4906 8.57895 10.5243ZM11.1053 5.42109C11.1053 7.28215 9.59789 8.78951 7.73684 8.78951C5.87579 8.78951 4.36842 7.28215 4.36842 5.42109C4.36842 3.56004 5.87579 2.05267 7.73684 2.05267C9.59789 2.05267 11.1053 3.56004 11.1053 5.42109ZM8.5791 12.9999L11.5012 15.9473L17.0002 10.3979L15.8212 9.21051L11.5012 13.5642L9.75805 11.8126L8.5791 12.9999Z" fill="black"></path>
</svg>