<svg width="18" height="18" viewBox="0 0 18 18" fill="none" xmlns="http://www.w3.org/2000/svg">
<path d="M9 1C4.584 1 1 4.584 1 9C1 13.416 4.584 17 9 17H13V15.4H9C5.528 15.4 2.6 12.472 2.6 9C2.6 5.528 5.528 2.6 9 2.6C12.472 2.6 15.4 5.528 15.4 9V10.144C15.4 10.776 14.832 11.4 14.2 11.4C13.568 11.4 13 10.776 13 10.144V9C13 6.792 11.208 5 9 5C6.792 5 5 6.792 5 9C5 11.208 6.792 13 9 13C10.104 13 11.112 12.552 11.832 11.824C12.352 12.536 13.248 13 14.2 13C15.776 13 17 11.72 17 10.144V9C17 4.584 13.416 1 9 1ZM9 11.4C7.672 11.4 6.6 10.328 6.6 9C6.6 7.672 7.672 6.6 9 6.6C10.328 6.6 11.4 7.672 11.4 9C11.4 10.328 10.328 11.4 9 11.4Z" fill="black"></path>
</svg>