<svg xmlns="http://www.w3.org/2000/svg" xmlns:xlink="http://www.w3.org/1999/xlink" width="160" height="293" viewBox="0 0 160 293">
  <defs>
    <style>
      .cls-1 {
        clip-path: url(#clip-blue_graphics);
      }

      .cls-2 {
        fill: #588af0;
      }
    </style>
    <clipPath id="clip-blue_graphics">
      <rect width="160" height="293"/>
    </clipPath>
  </defs>
  <g id="blue_graphics" class="cls-1">
    <g id="Group_4518" data-name="Group 4518" transform="translate(-321 -4633.515)">
      <path id="Path_2170" data-name="Path 2170" class="cls-2" d="M414.609,588.875v2.685h-2.721v.826h2.721v2.672h.838v-2.672h2.709v-.826h-2.709v-2.685Z" transform="translate(-76.888 4321.941)"/>
      <path id="Path_2182" data-name="Path 2182" class="cls-2" d="M443.609,588.875v2.685h-2.721v.826h2.721v2.672h.838v-2.672h2.709v-.826h-2.709v-2.685Z" transform="translate(-80.72 4321.941)"/>
      <path id="Path_2194" data-name="Path 2194" class="cls-2" d="M472.609,588.875v2.685h-2.721v.826h2.721v2.672h.838v-2.672h2.709v-.826h-2.709v-2.685Z" transform="translate(-84.552 4321.941)"/>
      <path id="Path_2206" data-name="Path 2206" class="cls-2" d="M501.609,588.875v2.685h-2.721v.826h2.721v2.672h.838v-2.672h2.709v-.826h-2.709v-2.685Z" transform="translate(-88.384 4321.941)"/>
      <path id="Path_2218" data-name="Path 2218" class="cls-2" d="M530.609,588.875v2.685h-2.721v.826h2.721v2.672h.838v-2.672h2.71v-.826h-2.71v-2.685Z" transform="translate(-92.216 4321.941)"/>
      <g id="Group_4517" data-name="Group 4517">
        <path id="Path_2159" data-name="Path 2159" class="cls-2" d="M414.609,280.874v2.685h-2.721v.826h2.721v2.673h.838v-2.673h2.709v-.826h-2.709v-2.685Z" transform="translate(-76.888 4362.641)"/>
        <path id="Path_2160" data-name="Path 2160" class="cls-2" d="M414.609,448.874v2.686h-2.721v.826h2.721v2.672h.838v-2.672h2.709v-.826h-2.709v-2.686Z" transform="translate(-76.888 4340.441)"/>
        <path id="Path_2161" data-name="Path 2161" class="cls-2" d="M414.609,364.874v2.686h-2.721v.826h2.721v2.672h.838v-2.672h2.709v-.826h-2.709v-2.686Z" transform="translate(-76.888 4351.541)"/>
        <path id="Path_2162" data-name="Path 2162" class="cls-2" d="M414.609,532.875v2.685h-2.721v.826h2.721v2.672h.838v-2.672h2.709v-.826h-2.709v-2.685Z" transform="translate(-76.888 4329.341)"/>
        <path id="Path_2163" data-name="Path 2163" class="cls-2" d="M414.609,308.874v2.686h-2.721v.826h2.721v2.672h.838v-2.672h2.709v-.826h-2.709v-2.686Z" transform="translate(-76.888 4358.941)"/>
        <path id="Path_2164" data-name="Path 2164" class="cls-2" d="M414.609,476.874v2.686h-2.721v.826h2.721v2.672h.838v-2.672h2.709v-.826h-2.709v-2.686Z" transform="translate(-76.888 4336.741)"/>
        <path id="Path_2165" data-name="Path 2165" class="cls-2" d="M414.609,392.874v2.686h-2.721v.826h2.721v2.672h.838v-2.672h2.709v-.826h-2.709v-2.686Z" transform="translate(-76.888 4347.841)"/>
        <path id="Path_2166" data-name="Path 2166" class="cls-2" d="M414.609,560.875v2.685h-2.721v.826h2.721v2.672h.838v-2.672h2.709v-.826h-2.709v-2.685Z" transform="translate(-76.888 4325.642)"/>
        <path id="Path_2167" data-name="Path 2167" class="cls-2" d="M414.609,336.874v2.686h-2.721v.826h2.721v2.672h.838v-2.672h2.709v-.826h-2.709v-2.686Z" transform="translate(-76.888 4355.241)"/>
        <path id="Path_2168" data-name="Path 2168" class="cls-2" d="M414.609,504.874v2.686h-2.721v.826h2.721v2.672h.838v-2.672h2.709v-.826h-2.709v-2.686Z" transform="translate(-76.888 4333.042)"/>
        <path id="Path_2169" data-name="Path 2169" class="cls-2" d="M414.609,420.874v2.686h-2.721v.826h2.721v2.672h.838v-2.672h2.709v-.826h-2.709v-2.686Z" transform="translate(-76.888 4344.141)"/>
        <path id="Path_2171" data-name="Path 2171" class="cls-2" d="M443.609,280.874v2.685h-2.721v.826h2.721v2.673h.838v-2.673h2.709v-.826h-2.709v-2.685Z" transform="translate(-80.72 4362.641)"/>
        <path id="Path_2172" data-name="Path 2172" class="cls-2" d="M443.609,448.874v2.686h-2.721v.826h2.721v2.672h.838v-2.672h2.709v-.826h-2.709v-2.686Z" transform="translate(-80.72 4340.441)"/>
        <path id="Path_2173" data-name="Path 2173" class="cls-2" d="M443.609,364.874v2.686h-2.721v.826h2.721v2.672h.838v-2.672h2.709v-.826h-2.709v-2.686Z" transform="translate(-80.72 4351.541)"/>
        <path id="Path_2174" data-name="Path 2174" class="cls-2" d="M443.609,532.875v2.685h-2.721v.826h2.721v2.672h.838v-2.672h2.709v-.826h-2.709v-2.685Z" transform="translate(-80.72 4329.341)"/>
        <path id="Path_2175" data-name="Path 2175" class="cls-2" d="M443.609,308.874v2.686h-2.721v.826h2.721v2.672h.838v-2.672h2.709v-.826h-2.709v-2.686Z" transform="translate(-80.72 4358.941)"/>
        <path id="Path_2176" data-name="Path 2176" class="cls-2" d="M443.609,476.874v2.686h-2.721v.826h2.721v2.672h.838v-2.672h2.709v-.826h-2.709v-2.686Z" transform="translate(-80.72 4336.741)"/>
        <path id="Path_2177" data-name="Path 2177" class="cls-2" d="M443.609,392.874v2.686h-2.721v.826h2.721v2.672h.838v-2.672h2.709v-.826h-2.709v-2.686Z" transform="translate(-80.72 4347.841)"/>
        <path id="Path_2178" data-name="Path 2178" class="cls-2" d="M443.609,560.875v2.685h-2.721v.826h2.721v2.672h.838v-2.672h2.709v-.826h-2.709v-2.685Z" transform="translate(-80.72 4325.642)"/>
        <path id="Path_2179" data-name="Path 2179" class="cls-2" d="M443.609,336.874v2.686h-2.721v.826h2.721v2.672h.838v-2.672h2.709v-.826h-2.709v-2.686Z" transform="translate(-80.72 4355.241)"/>
        <path id="Path_2180" data-name="Path 2180" class="cls-2" d="M443.609,504.874v2.686h-2.721v.826h2.721v2.672h.838v-2.672h2.709v-.826h-2.709v-2.686Z" transform="translate(-80.72 4333.042)"/>
        <path id="Path_2181" data-name="Path 2181" class="cls-2" d="M443.609,420.874v2.686h-2.721v.826h2.721v2.672h.838v-2.672h2.709v-.826h-2.709v-2.686Z" transform="translate(-80.72 4344.141)"/>
        <path id="Path_2183" data-name="Path 2183" class="cls-2" d="M472.609,280.874v2.685h-2.721v.826h2.721v2.673h.838v-2.673h2.709v-.826h-2.709v-2.685Z" transform="translate(-84.552 4362.641)"/>
        <path id="Path_2184" data-name="Path 2184" class="cls-2" d="M472.609,448.874v2.686h-2.721v.826h2.721v2.672h.838v-2.672h2.709v-.826h-2.709v-2.686Z" transform="translate(-84.552 4340.441)"/>
        <path id="Path_2185" data-name="Path 2185" class="cls-2" d="M472.609,364.874v2.686h-2.721v.826h2.721v2.672h.838v-2.672h2.709v-.826h-2.709v-2.686Z" transform="translate(-84.552 4351.541)"/>
        <path id="Path_2186" data-name="Path 2186" class="cls-2" d="M472.609,532.875v2.685h-2.721v.826h2.721v2.672h.838v-2.672h2.709v-.826h-2.709v-2.685Z" transform="translate(-84.552 4329.341)"/>
        <path id="Path_2187" data-name="Path 2187" class="cls-2" d="M472.609,308.874v2.686h-2.721v.826h2.721v2.672h.838v-2.672h2.709v-.826h-2.709v-2.686Z" transform="translate(-84.552 4358.941)"/>
        <path id="Path_2188" data-name="Path 2188" class="cls-2" d="M472.609,476.874v2.686h-2.721v.826h2.721v2.672h.838v-2.672h2.709v-.826h-2.709v-2.686Z" transform="translate(-84.552 4336.741)"/>
        <path id="Path_2189" data-name="Path 2189" class="cls-2" d="M472.609,392.874v2.686h-2.721v.826h2.721v2.672h.838v-2.672h2.709v-.826h-2.709v-2.686Z" transform="translate(-84.552 4347.841)"/>
        <path id="Path_2190" data-name="Path 2190" class="cls-2" d="M472.609,560.875v2.685h-2.721v.826h2.721v2.672h.838v-2.672h2.709v-.826h-2.709v-2.685Z" transform="translate(-84.552 4325.642)"/>
        <path id="Path_2191" data-name="Path 2191" class="cls-2" d="M472.609,336.874v2.686h-2.721v.826h2.721v2.672h.838v-2.672h2.709v-.826h-2.709v-2.686Z" transform="translate(-84.552 4355.241)"/>
        <path id="Path_2192" data-name="Path 2192" class="cls-2" d="M472.609,504.874v2.686h-2.721v.826h2.721v2.672h.838v-2.672h2.709v-.826h-2.709v-2.686Z" transform="translate(-84.552 4333.042)"/>
        <path id="Path_2193" data-name="Path 2193" class="cls-2" d="M472.609,420.874v2.686h-2.721v.826h2.721v2.672h.838v-2.672h2.709v-.826h-2.709v-2.686Z" transform="translate(-84.552 4344.141)"/>
        <path id="Path_2195" data-name="Path 2195" class="cls-2" d="M501.609,280.874v2.685h-2.721v.826h2.721v2.673h.838v-2.673h2.709v-.826h-2.709v-2.685Z" transform="translate(-88.384 4362.641)"/>
        <path id="Path_2196" data-name="Path 2196" class="cls-2" d="M501.609,448.874v2.686h-2.721v.826h2.721v2.672h.838v-2.672h2.709v-.826h-2.709v-2.686Z" transform="translate(-88.384 4340.441)"/>
        <path id="Path_2197" data-name="Path 2197" class="cls-2" d="M501.609,364.874v2.686h-2.721v.826h2.721v2.672h.838v-2.672h2.709v-.826h-2.709v-2.686Z" transform="translate(-88.384 4351.541)"/>
        <path id="Path_2198" data-name="Path 2198" class="cls-2" d="M501.609,532.875v2.685h-2.721v.826h2.721v2.672h.838v-2.672h2.709v-.826h-2.709v-2.685Z" transform="translate(-88.384 4329.341)"/>
        <path id="Path_2199" data-name="Path 2199" class="cls-2" d="M501.609,308.874v2.686h-2.721v.826h2.721v2.672h.838v-2.672h2.709v-.826h-2.709v-2.686Z" transform="translate(-88.384 4358.941)"/>
        <path id="Path_2200" data-name="Path 2200" class="cls-2" d="M501.609,476.874v2.686h-2.721v.826h2.721v2.672h.838v-2.672h2.709v-.826h-2.709v-2.686Z" transform="translate(-88.384 4336.741)"/>
        <path id="Path_2201" data-name="Path 2201" class="cls-2" d="M501.609,392.874v2.686h-2.721v.826h2.721v2.672h.838v-2.672h2.709v-.826h-2.709v-2.686Z" transform="translate(-88.384 4347.841)"/>
        <path id="Path_2202" data-name="Path 2202" class="cls-2" d="M501.609,560.875v2.685h-2.721v.826h2.721v2.672h.838v-2.672h2.709v-.826h-2.709v-2.685Z" transform="translate(-88.384 4325.642)"/>
        <path id="Path_2203" data-name="Path 2203" class="cls-2" d="M501.609,336.874v2.686h-2.721v.826h2.721v2.672h.838v-2.672h2.709v-.826h-2.709v-2.686Z" transform="translate(-88.384 4355.241)"/>
        <path id="Path_2204" data-name="Path 2204" class="cls-2" d="M501.609,504.874v2.686h-2.721v.826h2.721v2.672h.838v-2.672h2.709v-.826h-2.709v-2.686Z" transform="translate(-88.384 4333.042)"/>
        <path id="Path_2205" data-name="Path 2205" class="cls-2" d="M501.609,420.874v2.686h-2.721v.826h2.721v2.672h.838v-2.672h2.709v-.826h-2.709v-2.686Z" transform="translate(-88.384 4344.141)"/>
        <path id="Path_2207" data-name="Path 2207" class="cls-2" d="M530.609,280.874v2.685h-2.721v.826h2.721v2.673h.838v-2.673h2.71v-.826h-2.71v-2.685Z" transform="translate(-92.216 4362.641)"/>
        <path id="Path_2208" data-name="Path 2208" class="cls-2" d="M530.609,448.874v2.686h-2.721v.826h2.721v2.672h.838v-2.672h2.71v-.826h-2.71v-2.686Z" transform="translate(-92.216 4340.441)"/>
        <path id="Path_2209" data-name="Path 2209" class="cls-2" d="M530.609,364.874v2.686h-2.721v.826h2.721v2.672h.838v-2.672h2.71v-.826h-2.71v-2.686Z" transform="translate(-92.216 4351.541)"/>
        <path id="Path_2210" data-name="Path 2210" class="cls-2" d="M530.609,532.875v2.685h-2.721v.826h2.721v2.672h.838v-2.672h2.71v-.826h-2.71v-2.685Z" transform="translate(-92.216 4329.341)"/>
        <path id="Path_2211" data-name="Path 2211" class="cls-2" d="M530.609,308.874v2.686h-2.721v.826h2.721v2.672h.838v-2.672h2.71v-.826h-2.71v-2.686Z" transform="translate(-92.216 4358.941)"/>
        <path id="Path_2212" data-name="Path 2212" class="cls-2" d="M530.609,476.874v2.686h-2.721v.826h2.721v2.672h.838v-2.672h2.71v-.826h-2.71v-2.686Z" transform="translate(-92.216 4336.741)"/>
        <path id="Path_2213" data-name="Path 2213" class="cls-2" d="M530.609,392.874v2.686h-2.721v.826h2.721v2.672h.838v-2.672h2.71v-.826h-2.71v-2.686Z" transform="translate(-92.216 4347.841)"/>
        <path id="Path_2214" data-name="Path 2214" class="cls-2" d="M530.609,560.875v2.685h-2.721v.826h2.721v2.672h.838v-2.672h2.71v-.826h-2.71v-2.685Z" transform="translate(-92.216 4325.642)"/>
        <path id="Path_2215" data-name="Path 2215" class="cls-2" d="M530.609,336.874v2.686h-2.721v.826h2.721v2.672h.838v-2.672h2.71v-.826h-2.71v-2.686Z" transform="translate(-92.216 4355.241)"/>
        <path id="Path_2216" data-name="Path 2216" class="cls-2" d="M530.609,504.874v2.686h-2.721v.826h2.721v2.672h.838v-2.672h2.71v-.826h-2.71v-2.686Z" transform="translate(-92.216 4333.042)"/>
        <path id="Path_2217" data-name="Path 2217" class="cls-2" d="M530.609,420.874v2.686h-2.721v.826h2.721v2.672h.838v-2.672h2.71v-.826h-2.71v-2.686Z" transform="translate(-92.216 4344.141)"/>
        <path id="Path_2219" data-name="Path 2219" class="cls-2" d="M559.609,280.874v2.685h-2.721v.826h2.721v2.673h.838v-2.673h2.71v-.826h-2.71v-2.685Z" transform="translate(-96.048 4362.641)"/>
        <path id="Path_2220" data-name="Path 2220" class="cls-2" d="M559.609,448.874v2.686h-2.721v.826h2.721v2.672h.838v-2.672h2.71v-.826h-2.71v-2.686Z" transform="translate(-96.048 4340.441)"/>
        <path id="Path_2221" data-name="Path 2221" class="cls-2" d="M559.609,364.874v2.686h-2.721v.826h2.721v2.672h.838v-2.672h2.71v-.826h-2.71v-2.686Z" transform="translate(-96.048 4351.541)"/>
        <path id="Path_2222" data-name="Path 2222" class="cls-2" d="M559.609,532.875v2.685h-2.721v.826h2.721v2.672h.838v-2.672h2.71v-.826h-2.71v-2.685Z" transform="translate(-96.048 4329.341)"/>
        <path id="Path_2223" data-name="Path 2223" class="cls-2" d="M559.609,308.874v2.686h-2.721v.826h2.721v2.672h.838v-2.672h2.71v-.826h-2.71v-2.686Z" transform="translate(-96.048 4358.941)"/>
        <path id="Path_2224" data-name="Path 2224" class="cls-2" d="M559.609,476.874v2.686h-2.721v.826h2.721v2.672h.838v-2.672h2.71v-.826h-2.71v-2.686Z" transform="translate(-96.048 4336.741)"/>
        <path id="Path_2225" data-name="Path 2225" class="cls-2" d="M559.609,392.874v2.686h-2.721v.826h2.721v2.672h.838v-2.672h2.71v-.826h-2.71v-2.686Z" transform="translate(-96.048 4347.841)"/>
        <path id="Path_2226" data-name="Path 2226" class="cls-2" d="M559.609,560.875v2.685h-2.721v.826h2.721v2.672h.838v-2.672h2.71v-.826h-2.71v-2.685Z" transform="translate(-96.048 4325.642)"/>
        <path id="Path_2227" data-name="Path 2227" class="cls-2" d="M559.609,336.874v2.686h-2.721v.826h2.721v2.672h.838v-2.672h2.71v-.826h-2.71v-2.686Z" transform="translate(-96.048 4355.241)"/>
        <path id="Path_2228" data-name="Path 2228" class="cls-2" d="M559.609,504.874v2.686h-2.721v.826h2.721v2.672h.838v-2.672h2.71v-.826h-2.71v-2.686Z" transform="translate(-96.048 4333.042)"/>
        <path id="Path_2229" data-name="Path 2229" class="cls-2" d="M559.609,420.874v2.686h-2.721v.826h2.721v2.672h.838v-2.672h2.71v-.826h-2.71v-2.686Z" transform="translate(-96.048 4344.141)"/>
      </g>
      <path id="Path_2230" data-name="Path 2230" class="cls-2" d="M559.609,588.875v2.685h-2.721v.826h2.721v2.672h.838v-2.672h2.71v-.826h-2.71v-2.685Z" transform="translate(-96.048 4321.941)"/>
    </g>
  </g>
</svg>
