<svg width="18" height="18" viewBox="0 0 18 18" fill="none" xmlns="http://www.w3.org/2000/svg">
<path fill-rule="evenodd" clip-rule="evenodd" d="M0.854129 14.2692H2.59538C2.4667 14.236 2.36998 14.1171 2.36998 13.9788L2.36984 3.51887C2.36984 3.3543 2.50539 3.21875 2.66995 3.21875H15.2512C15.4158 3.21875 15.5514 3.3543 15.5514 3.51887V13.9773C15.5514 14.1169 15.4559 14.2345 15.326 14.2678H17.146C17.3396 14.2678 17.4973 14.4255 17.4973 14.619C17.4973 14.8126 17.3396 14.9703 17.146 14.9703H0.854211C0.66063 14.9703 0.50293 14.8126 0.50293 14.619C0.50293 14.4267 0.660544 14.2692 0.854129 14.2692ZM8.50621 14.4005H9.49377C9.58642 14.4005 9.66254 14.4767 9.66254 14.5693C9.66254 14.662 9.58642 14.7381 9.49377 14.7381H8.50621C8.41356 14.7381 8.33744 14.662 8.33744 14.5693C8.33744 14.4753 8.41356 14.4005 8.50621 14.4005ZM14.7736 4.1686H3.18945V13.4721H14.7736V4.1686ZM10.8661 8.19639C10.4275 7.74226 9.97783 7.16633 9.87146 6.7343C9.85146 6.65018 9.78511 6.58582 9.70086 6.56818C9.61885 6.55264 9.5325 6.58371 9.47932 6.65229C9.47708 6.65677 9.11164 7.09313 7.88876 6.96243C7.82452 6.95796 7.75804 6.97796 7.71158 7.02443L7.70903 7.02696C7.66613 7.06951 7.25374 7.47861 7.02037 8.00353C6.92507 7.47856 6.95837 6.76958 7.54547 6.1759C8.26104 5.44704 9.42851 5.33857 10.2614 5.9233C10.7798 6.28897 11.2782 6.97349 10.8661 8.19637L10.8661 8.19639ZM10.7018 8.66119C10.447 8.41082 9.83334 7.77277 9.55203 7.1525L9.55202 7.15251C9.27955 7.31417 8.7833 7.487 7.9503 7.41618C7.70216 7.67984 7.25248 8.27784 7.30566 8.77412C7.31014 8.80742 7.30567 8.8406 7.29461 8.86943C7.46297 9.39665 7.76207 9.84631 8.12761 10.121C8.3934 10.3205 8.67482 10.4223 8.96943 10.4223C9.28179 10.4223 9.59417 10.3005 9.87324 10.0723C10.2587 9.75112 10.5622 9.23273 10.7018 8.66342V8.66119ZM12.2347 12.4521C12.3566 12.4521 12.4562 12.3524 12.4562 12.2305L12.4562 12.2305C12.4562 12.2061 12.4518 12.184 12.4452 12.1619C12.3743 11.6235 12.0199 11.3887 11.5502 11.2115C11.0759 11.0304 10.7287 10.8971 10.4735 10.7991L10.4731 10.7989C10.2791 10.7244 10.1383 10.6703 10.035 10.6311L10.0217 10.5137C9.69153 10.7441 9.3327 10.8637 8.96938 10.8637C8.61936 10.8637 8.28488 10.7596 7.97027 10.5491L7.95934 10.6488C7.65804 10.764 7.21719 10.9323 6.9447 11.0254L6.9446 11.0254C6.19591 11.2779 5.60438 11.4773 5.54461 12.2127C5.54014 12.2747 5.56226 12.3346 5.60438 12.3811C5.64414 12.4255 5.70403 12.4521 5.76603 12.4521H12.2302H12.2347Z" fill="black"></path>
</svg>