<svg width="18" height="18" viewBox="0 0 18 18" fill="none" xmlns="http://www.w3.org/2000/svg">
<path fill-rule="evenodd" clip-rule="evenodd" d="M7.4002 8.20005C9.16751 8.20005 10.6002 6.76736 10.6002 5.00005C10.6002 3.23274 9.16751 1.80005 7.4002 1.80005C5.63287 1.80005 4.2002 3.23274 4.2002 5.00005C4.2002 6.76736 5.63287 8.20005 7.4002 8.20005ZM7.68 9.80813C5.496 9.72813 1 10.8161 1 13.0001V14.6001H8.632C6.656 12.3921 7.648 9.88813 7.68 9.80813ZM15.4 11.4C15.4 11.992 15.232 12.544 14.944 13.016L17 15.072L15.872 16.2L13.816 14.144C13.344 14.424 12.792 14.6 12.2 14.6C10.432 14.6 9 13.168 9 11.4C9 9.63201 10.432 8.20001 12.2 8.20001C13.968 8.20001 15.4 9.63201 15.4 11.4ZM10.6 11.4C10.6 12.28 11.32 13 12.2 13C13.08 13 13.8 12.28 13.8 11.4C13.8 10.52 13.08 9.80001 12.2 9.80001C11.32 9.80001 10.6 10.52 10.6 11.4Z" fill="black"></path>
</svg>