<svg width="18" height="19" viewBox="0 0 18 19" fill="none" xmlns="http://www.w3.org/2000/svg">
<path fill-rule="evenodd" clip-rule="evenodd" d="M13.1068 1.95117H11.3628C11.0854 1.95117 10.8475 2.18902 10.8475 2.46641V3.14024H13.6221V2.46641C13.6221 2.189 13.3842 1.95117 13.1069 1.95117H13.1068ZM3.63347 3.55617H11.105H14.8705C15.5046 3.55617 16.0001 4.07141 16.0001 4.68574V14.7933C16.0001 15.4274 15.4849 15.9229 14.8705 15.9229H3.63347C2.99939 15.9229 2.50391 15.4076 2.50391 14.7933V4.68574C2.50391 4.05166 3.01914 3.55617 3.63347 3.55617ZM4.01002 14.4367H14.4545V6.41022H4.01002V14.4367ZM10.5897 11.0678L11.5608 10.1166C11.6006 10.0966 11.6203 10.0571 11.6399 10.0175C11.6797 9.87872 11.5806 9.73993 11.4418 9.70038L10.0942 9.50225L9.49965 8.29338C9.47987 8.25382 9.44015 8.2141 9.40059 8.19432C9.28175 8.11504 9.12318 8.1546 9.0439 8.29338L8.42957 9.50225L7.08194 9.68059C7.02243 9.68059 6.98271 9.70054 6.94315 9.7401C6.82431 9.83916 6.82431 10.0175 6.92337 10.1166L7.89454 11.0678L7.65669 12.4154C7.65669 12.4551 7.65669 12.5146 7.67647 12.5542C7.73581 12.693 7.89438 12.7525 8.03316 12.693L9.24203 12.0587L10.4311 12.693C10.4708 12.7128 10.5303 12.7128 10.5699 12.7128C10.7087 12.6928 10.8275 12.5542 10.8077 12.4154L10.5897 11.0678ZM5.37757 1.95117H7.12163H7.12167C7.39906 1.95117 7.63691 2.189 7.63691 2.46641V3.14024H4.86234V2.46641C4.86234 2.18902 5.10016 1.95117 5.37757 1.95117Z" fill="black"></path>
</svg>