<svg xmlns="http://www.w3.org/2000/svg" width="65" height="65" viewBox="0 0 65 65">
    <defs>
        <linearGradient id="to5tn5pvva" x1="50%" x2="50%" y1="100%" y2="0%">
            <stop offset="0%" stop-color="#4DC674"/>
            <stop offset="100%" stop-color="#3BBDA1"/>
        </linearGradient>
        <linearGradient id="27wvyfqh9b" x1="50%" x2="50%" y1="100%" y2="0%">
            <stop offset="0%" stop-color="#59EE87"/>
            <stop offset="100%" stop-color="#4AF0D0"/>
        </linearGradient>
    </defs>
    <g fill="none" fill-rule="evenodd">
        <g>
            <g>
                <g fill="#DFFFF0" transform="translate(-997 -164) translate(997 164)">
                    <rect width="64.8" height="64.8" rx="14.4"/>
                </g>
                <g fill-rule="nonzero">
                    <path fill="url(#to5tn5pvva)" d="M40.297 38.687l-.003-.002c-1.502-.923-2.001-2.95-1.101-4.454 1.172-2.04 1.767-4.244 1.767-6.551 0-7.278-6.003-13.2-13.28-13.2-1.066 0-2.077.117-3.002.347-.436.109-.776.455-.88.893-.923 3.982-4.094 7.153-8.078 8.08-.438.102-.783.44-.893.878-.23.923-.347 1.933-.347 3.002 0 7.278 5.923 13.28 13.2 13.28h12.08c.555 0 1.04-.383 1.167-.925.13-.541-.133-1.1-.63-1.348z" transform="translate(-997 -164) translate(997 164) translate(12 12)"/>
                    <path fill="url(#27wvyfqh9b)" d="M13.28 0C6.008 0 0 6.008 0 13.28c0 2.304.6 4.56 1.752 6.504.888 1.56.384 3.552-1.152 4.464-.48.264-.696.816-.552 1.344.144.528.6.888 1.152.888h12.08c1.056 0 2.088-.12 2.976-.336 4.872-1.128 8.76-5.016 9.888-9.864.216-.912.336-1.92.336-3C26.48 6.008 20.552 0 13.28 0zm-4.8 14.48c-.672 0-1.2-.528-1.2-1.2 0-.672.528-1.2 1.2-1.2.672 0 1.2.528 1.2 1.2 0 .672-.528 1.2-1.2 1.2zm4.8 0c-.672 0-1.2-.528-1.2-1.2 0-.672.528-1.2 1.2-1.2.672 0 1.2.528 1.2 1.2 0 .672-.528 1.2-1.2 1.2zm4.8 0c-.672 0-1.2-.528-1.2-1.2 0-.672.528-1.2 1.2-1.2.672 0 1.2.528 1.2 1.2 0 .672-.528 1.2-1.2 1.2z" transform="translate(-997 -164) translate(997 164) translate(12 12)"/>
                </g>
            </g>
        </g>
    </g>
</svg>
