<svg width="18" height="18" viewBox="0 0 18 18" fill="none" xmlns="http://www.w3.org/2000/svg">
<path d="M9 1C4.584 1 1 4.584 1 9C1 13.416 4.584 17 9 17C13.416 17 17 13.416 17 9C17 4.584 13.416 1 9 1ZM14.968 6.696L12.744 7.616C12.336 6.528 11.48 5.664 10.384 5.264L11.304 3.04C12.984 3.68 14.32 5.016 14.968 6.696ZM9 11.4C7.672 11.4 6.6 10.328 6.6 9C6.6 7.672 7.672 6.6 9 6.6C10.328 6.6 11.4 7.672 11.4 9C11.4 10.328 10.328 11.4 9 11.4ZM6.704 3.032L7.64 5.256C6.536 5.656 5.664 6.528 5.256 7.632L3.032 6.704C3.68 5.016 5.016 3.68 6.704 3.032ZM3.032 11.296L5.256 10.376C5.664 11.48 6.528 12.344 7.632 12.744L6.696 14.968C5.016 14.32 3.68 12.984 3.032 11.296ZM11.304 14.968L10.384 12.744C11.48 12.336 12.344 11.472 12.744 10.368L14.968 11.304C14.32 12.984 12.984 14.32 11.304 14.968Z" fill="black"></path>
</svg>