<svg width="20" height="20" viewBox="0 0 24 24" fill="currentColor" xmlns="http://www.w3.org/2000/svg" class="ct-icon" data-testid="button-icon" style="min-width: 20px; min-height: 20px; color: currentcolor;"><path d="M6.99995 16.5502C5.74995 16.5502 4.67928 16.1045 3.78795 15.2132C2.89595 14.3212 2.44995 13.2502 2.44995 12.0002C2.44995 10.7502 2.89595 9.6792 3.78795 8.7872C4.67928 7.89586 5.74995 7.4502 6.99995 7.4502H10.05C10.2666 7.4502 10.446 7.5252 10.588 7.6752C10.7293 7.8252 10.8 8.0002 10.8 8.2002C10.8 8.41686 10.7293 8.59586 10.588 8.7372C10.446 8.8792 10.2666 8.9502 10.05 8.9502H6.99995C6.16662 8.9502 5.44995 9.2502 4.84995 9.8502C4.24995 10.4502 3.94995 11.1669 3.94995 12.0002C3.94995 12.8335 4.24995 13.5502 4.84995 14.1502C5.44995 14.7502 6.16662 15.0502 6.99995 15.0502H10.05C10.2666 15.0502 10.446 15.1209 10.588 15.2622C10.7293 15.4042 10.8 15.5835 10.8 15.8002C10.8 16.0002 10.7293 16.1752 10.588 16.3252C10.446 16.4752 10.2666 16.5502 10.05 16.5502H6.99995ZM8.99995 12.7502C8.78328 12.7502 8.60428 12.6792 8.46295 12.5372C8.32095 12.3959 8.24995 12.2169 8.24995 12.0002C8.24995 11.7835 8.32095 11.6042 8.46295 11.4622C8.60428 11.3209 8.78328 11.2502 8.99995 11.2502H15C15.2166 11.2502 15.396 11.3209 15.538 11.4622C15.6793 11.6042 15.75 11.7835 15.75 12.0002C15.75 12.2169 15.6793 12.3959 15.538 12.5372C15.396 12.6792 15.2166 12.7502 15 12.7502H8.99995ZM13.95 16.5502C13.7333 16.5502 13.5543 16.4752 13.413 16.3252C13.271 16.1752 13.2 16.0002 13.2 15.8002C13.2 15.5835 13.271 15.4042 13.413 15.2622C13.5543 15.1209 13.7333 15.0502 13.95 15.0502H17C17.8333 15.0502 18.5499 14.7502 19.15 14.1502C19.75 13.5502 20.0499 12.8335 20.0499 12.0002C20.0499 11.1669 19.75 10.4502 19.15 9.8502C18.5499 9.2502 17.8333 8.9502 17 8.9502H13.95C13.7333 8.9502 13.5543 8.8792 13.413 8.7372C13.271 8.59586 13.2 8.41686 13.2 8.2002C13.2 8.0002 13.271 7.8252 13.413 7.6752C13.5543 7.5252 13.7333 7.4502 13.95 7.4502H17C18.25 7.4502 19.3206 7.89586 20.212 8.7872C21.104 9.6792 21.5499 10.7502 21.5499 12.0002C21.5499 13.2502 21.104 14.3212 20.212 15.2132C19.3206 16.1045 18.25 16.5502 17 16.5502H13.95Z" fill="#2998FF"></path></svg>