<svg width="39" height="39" viewBox="0 0 39 39" fill="none" xmlns="http://www.w3.org/2000/svg"> <circle cx="19.5" cy="19.5" r="19.5" fill="#EDF6FE"></circle> <path d="M20 20C18.9 20 18 19.1 18 18C18 16.9 18.9 16 20 16C21.1 16 22 16.9 22 18C22 19.1 21.1 20 20 20ZM26 18.2C26 14.57 23.35 12 20 12C16.65 12 14 14.57 14 18.2C14 20.54 15.95 23.64 20 27.34C24.05 23.64 26 20.54 26 18.2ZM20 10C24.2 10 28 13.22 28 18.2C28 21.52 25.33 25.45 20 30C14.67 25.45 12 21.52 12 18.2C12 13.22 15.8 10 20 10Z" fill="#2998FF"></path> </svg>