<svg width="24" height="24" viewBox="0 0 24 24" fill="currentColor" xmlns="http://www.w3.org/2000/svg" class="ct-icon" data-testid="icon" style="min-width: 24px; min-height: 24px; color: var(--ct-gray-6);"><path d="M19.25 18.1893L18.1161 17.0555C17.6004 16.5397 16.9009 16.25 16.1716 16.25H7.93198L7.44089 16.7411C8.11098 17.367 9.01076 17.75 10 17.75H16.1716C16.5031 17.75 16.821 17.8817 17.0555 18.1161L19.0429 20.1036C19.6729 20.7335 20.75 20.2874 20.75 19.3964V10C20.75 8.77314 20.1608 7.68388 19.25 6.99973V18.1893Z" fill="currentColor"></path><path fill-rule="evenodd" clip-rule="evenodd" d="M3.25 7C3.25 4.92893 4.92893 3.25 7 3.25H14C16.0711 3.25 17.75 4.92893 17.75 7V11C17.75 13.0711 16.0711 14.75 14 14.75H7.82843C7.49691 14.75 7.17896 14.8817 6.94454 15.1161L4.95711 17.1036C4.32714 17.7335 3.25 17.2874 3.25 16.3964V7ZM7 4.75C5.75736 4.75 4.75 5.75736 4.75 7V15.1893L5.88388 14.0555C6.39961 13.5397 7.09908 13.25 7.82843 13.25H14C15.2426 13.25 16.25 12.2426 16.25 11V7C16.25 5.75736 15.2426 4.75 14 4.75H7Z" fill="currentColor"></path></svg>