<svg width="18" height="18" viewBox="0 0 18 18" xmlns="http://www.w3.org/2000/svg">
<path d="M8.64621 0.889799C8.79423 0.601667 9.20612 0.601667 9.35415 0.889799L9.98611 2.11991C10.0439 2.23238 10.1517 2.3107 10.2765 2.3309L11.6417 2.55181C11.9615 2.60355 12.0888 2.99528 11.8605 3.2251L10.8859 4.20626C10.7967 4.29597 10.7556 4.42269 10.7749 4.54765L10.9867 5.91429C11.0363 6.2344 10.7031 6.4765 10.414 6.33041L9.17965 5.70669C9.0668 5.64966 8.93356 5.64966 8.8207 5.70669L7.58639 6.33041C7.29727 6.4765 6.96405 6.2344 7.01365 5.91429L7.22542 4.54765C7.24478 4.42269 7.20361 4.29597 7.11449 4.20626L6.13988 3.2251C5.91159 2.99528 6.03887 2.60355 6.35865 2.55181L7.72384 2.3309C7.84866 2.3107 7.95646 2.23238 8.01424 2.11991L8.64621 0.889799Z"></path>
<path d="M14.0647 4.47128C14.2127 4.18315 14.6246 4.18315 14.7726 4.47128L15.4046 5.70139C15.4624 5.81386 15.5701 5.89218 15.695 5.91238L17.0602 6.13329C17.3799 6.18504 17.5072 6.57676 17.2789 6.80658L16.3043 7.78774C16.2152 7.87745 16.174 8.00418 16.1934 8.12913L16.4052 9.49577C16.4548 9.81588 16.1215 10.058 15.8324 9.91189L14.5981 9.28817C14.4853 9.23114 14.352 9.23114 14.2392 9.28817L13.0048 9.91189C12.7157 10.058 12.3825 9.81588 12.4321 9.49577L12.6439 8.12913C12.6632 8.00418 12.6221 7.87745 12.533 7.78774L11.5583 6.80658C11.3301 6.57676 11.4573 6.18504 11.7771 6.13329L13.1423 5.91238C13.2671 5.89218 13.3749 5.81386 13.4327 5.70139L14.0647 4.47128Z"></path>
<path d="M3.22751 4.47128C3.37553 4.18315 3.78742 4.18315 3.93545 4.47128L4.56741 5.70139C4.6252 5.81386 4.73299 5.89218 4.85781 5.91238L6.22301 6.13329C6.54278 6.18504 6.67006 6.57676 6.44177 6.80658L5.46716 7.78774C5.37805 7.87745 5.33687 8.00418 5.35623 8.12913L5.568 9.49577C5.6176 9.81588 5.28438 10.058 4.99527 9.91189L3.76095 9.28817C3.6481 9.23114 3.51485 9.23114 3.402 9.28817L2.16769 9.91189C1.87857 10.058 1.54535 9.81588 1.59495 9.49577L1.80672 8.12913C1.82608 8.00418 1.7849 7.87745 1.69579 7.78774L0.721179 6.80658C0.492892 6.57676 0.620171 6.18504 0.939945 6.13329L2.30514 5.91238C2.42996 5.89218 2.53775 5.81386 2.59554 5.70139L3.22751 4.47128Z"></path>
<path d="M5.13473 10.7417C5.28276 10.4536 5.69464 10.4536 5.84267 10.7417L6.47464 11.9718C6.53242 12.0843 6.64022 12.1626 6.76504 12.1828L8.13023 12.4037C8.45001 12.4555 8.57728 12.8472 8.349 13.077L7.37438 14.0582C7.28527 14.1479 7.2441 14.2746 7.26346 14.3996L7.47523 15.7662C7.52483 16.0863 7.19161 16.3284 6.90249 16.1823L5.66818 15.5586C5.55532 15.5016 5.42208 15.5016 5.30922 15.5586L4.07491 16.1823C3.78579 16.3284 3.45257 16.0863 3.50218 15.7662L3.71394 14.3996C3.7333 14.2746 3.69213 14.1479 3.60302 14.0582L2.62841 13.077C2.40012 12.8472 2.5274 12.4555 2.84717 12.4037L4.21236 12.1828C4.33719 12.1626 4.44498 12.0843 4.50276 11.9718L5.13473 10.7417Z"></path>
<path d="M12.1579 10.7417C12.306 10.4536 12.7178 10.4536 12.8659 10.7417L13.4978 11.9718C13.5556 12.0843 13.6634 12.1626 13.7882 12.1828L15.1534 12.4037C15.4732 12.4555 15.6005 12.8472 15.3722 13.077L14.3976 14.0582C14.3085 14.1479 14.2673 14.2746 14.2867 14.3996L14.4984 15.7662C14.548 16.0863 14.2148 16.3284 13.9257 16.1823L12.6914 15.5586C12.5785 15.5016 12.4453 15.5016 12.3324 15.5586L11.0981 16.1823C10.809 16.3284 10.4758 16.0863 10.5254 15.7662L10.7371 14.3996C10.7565 14.2746 10.7153 14.1479 10.6262 14.0582L9.6516 13.077C9.42331 12.8472 9.55059 12.4555 9.87036 12.4037L11.2356 12.1828C11.3604 12.1626 11.4682 12.0843 11.526 11.9718L12.1579 10.7417Z"></path>
</svg>