<svg width="20" height="20" viewBox="0 0 24 24" fill="currentColor" xmlns="http://www.w3.org/2000/svg" class="ct-icon" data-testid="button-icon" style="min-width: 20px; min-height: 20px; color: currentcolor;"><path d="M12 16.75C12.2167 16.75 12.396 16.6793 12.538 16.538C12.6793 16.396 12.75 16.2167 12.75 16V12.75H16.025C16.225 12.75 16.396 12.679 16.538 12.537C16.6793 12.3957 16.75 12.2167 16.75 12C16.75 11.7833 16.6793 11.604 16.538 11.462C16.396 11.3207 16.2167 11.25 16 11.25H12.75V7.975C12.75 7.775 12.6793 7.60433 12.538 7.463C12.396 7.321 12.2167 7.25 12 7.25C11.7833 7.25 11.6043 7.321 11.463 7.463C11.321 7.60433 11.25 7.78333 11.25 8V11.25H7.975C7.775 11.25 7.60433 11.3207 7.463 11.462C7.321 11.604 7.25 11.7833 7.25 12C7.25 12.2167 7.321 12.3957 7.463 12.537C7.60433 12.679 7.78333 12.75 8 12.75H11.25V16.025C11.25 16.225 11.321 16.396 11.463 16.538C11.6043 16.6793 11.7833 16.75 12 16.75ZM12 21.5C10.6833 21.5 9.446 21.25 8.288 20.75C7.12933 20.25 6.125 19.575 5.275 18.725C4.425 17.875 3.75 16.8707 3.25 15.712C2.75 14.554 2.5 13.3167 2.5 12C2.5 10.6833 2.75 9.44567 3.25 8.287C3.75 7.129 4.425 6.125 5.275 5.275C6.125 4.425 7.12933 3.75 8.288 3.25C9.446 2.75 10.6833 2.5 12 2.5C13.3167 2.5 14.5543 2.75 15.713 3.25C16.871 3.75 17.875 4.425 18.725 5.275C19.575 6.125 20.25 7.129 20.75 8.287C21.25 9.44567 21.5 10.6833 21.5 12C21.5 13.3167 21.25 14.554 20.75 15.712C20.25 16.8707 19.575 17.875 18.725 18.725C17.875 19.575 16.871 20.25 15.713 20.75C14.5543 21.25 13.3167 21.5 12 21.5ZM12 20C14.2167 20 16.1043 19.221 17.663 17.663C19.221 16.1043 20 14.2167 20 12C20 9.78333 19.221 7.89567 17.663 6.337C16.1043 4.779 14.2167 4 12 4C9.78333 4 7.896 4.779 6.338 6.337C4.77933 7.89567 4 9.78333 4 12C4 14.2167 4.77933 16.1043 6.338 17.663C7.896 19.221 9.78333 20 12 20Z" fill="black"></path></svg>