<svg width="20" height="20" viewBox="0 0 24 24" fill="currentColor" xmlns="http://www.w3.org/2000/svg" class="ct-icon" data-testid="button-icon" style="min-width: 20px; min-height: 20px; color: currentcolor;"><path d="M5 11C4.58333 11 4.22933 10.854 3.938 10.562C3.646 10.2707 3.5 9.91667 3.5 9.5V5C3.5 4.58333 3.646 4.22933 3.938 3.938C4.22933 3.646 4.58333 3.5 5 3.5H9.5C9.91667 3.5 10.2707 3.646 10.562 3.938C10.854 4.22933 11 4.58333 11 5V9.5C11 9.91667 10.854 10.2707 10.562 10.562C10.2707 10.854 9.91667 11 9.5 11H5ZM5 9.5H9.5V5H5V9.5ZM5 20.5C4.58333 20.5 4.22933 20.354 3.938 20.062C3.646 19.7707 3.5 19.4167 3.5 19V14.5C3.5 14.0833 3.646 13.7293 3.938 13.438C4.22933 13.146 4.58333 13 5 13H9.5C9.91667 13 10.2707 13.146 10.562 13.438C10.854 13.7293 11 14.0833 11 14.5V19C11 19.4167 10.854 19.7707 10.562 20.062C10.2707 20.354 9.91667 20.5 9.5 20.5H5ZM5 19H9.5V14.5H5V19ZM14.5 11C14.0833 11 13.7293 10.854 13.438 10.562C13.146 10.2707 13 9.91667 13 9.5V5C13 4.58333 13.146 4.22933 13.438 3.938C13.7293 3.646 14.0833 3.5 14.5 3.5H19C19.4167 3.5 19.7707 3.646 20.062 3.938C20.354 4.22933 20.5 4.58333 20.5 5V9.5C20.5 9.91667 20.354 10.2707 20.062 10.562C19.7707 10.854 19.4167 11 19 11H14.5ZM14.5 9.5H19V5H14.5V9.5ZM19.075 20.5C18.9583 20.5 18.8543 20.4543 18.763 20.363C18.671 20.271 18.625 20.1667 18.625 20.05V19.075C18.625 18.9583 18.671 18.854 18.763 18.762C18.8543 18.6707 18.9583 18.625 19.075 18.625H20.05C20.1667 18.625 20.271 18.6707 20.363 18.762C20.4543 18.854 20.5 18.9583 20.5 19.075V20.05C20.5 20.1667 20.4543 20.271 20.363 20.363C20.271 20.4543 20.1667 20.5 20.05 20.5H19.075ZM13.45 14.875C13.3333 14.875 13.229 14.8293 13.137 14.738C13.0457 14.646 13 14.5417 13 14.425V13.45C13 13.3333 13.0457 13.229 13.137 13.137C13.229 13.0457 13.3333 13 13.45 13H14.425C14.5417 13 14.646 13.0457 14.738 13.137C14.8293 13.229 14.875 13.3333 14.875 13.45V14.425C14.875 14.5417 14.8293 14.646 14.738 14.738C14.646 14.8293 14.5417 14.875 14.425 14.875H13.45ZM15.325 16.75C15.2083 16.75 15.104 16.7043 15.012 16.613C14.9207 16.521 14.875 16.4167 14.875 16.3V15.325C14.875 15.2083 14.9207 15.104 15.012 15.012C15.104 14.9207 15.2083 14.875 15.325 14.875H16.3C16.4167 14.875 16.521 14.9207 16.613 15.012C16.7043 15.104 16.75 15.2083 16.75 15.325V16.3C16.75 16.4167 16.7043 16.521 16.613 16.613C16.521 16.7043 16.4167 16.75 16.3 16.75H15.325ZM13.45 18.625C13.3333 18.625 13.229 18.5793 13.137 18.488C13.0457 18.396 13 18.2917 13 18.175V17.2C13 17.0833 13.0457 16.979 13.137 16.887C13.229 16.7957 13.3333 16.75 13.45 16.75H14.425C14.5417 16.75 14.646 16.7957 14.738 16.887C14.8293 16.979 14.875 17.0833 14.875 17.2V18.175C14.875 18.2917 14.8293 18.396 14.738 18.488C14.646 18.5793 14.5417 18.625 14.425 18.625H13.45ZM15.325 20.5C15.2083 20.5 15.104 20.4543 15.012 20.363C14.9207 20.271 14.875 20.1667 14.875 20.05V19.075C14.875 18.9583 14.9207 18.854 15.012 18.762C15.104 18.6707 15.2083 18.625 15.325 18.625H16.3C16.4167 18.625 16.521 18.6707 16.613 18.762C16.7043 18.854 16.75 18.9583 16.75 19.075V20.05C16.75 20.1667 16.7043 20.271 16.613 20.363C16.521 20.4543 16.4167 20.5 16.3 20.5H15.325ZM17.2 18.625C17.0833 18.625 16.9793 18.5793 16.888 18.488C16.796 18.396 16.75 18.2917 16.75 18.175V17.2C16.75 17.0833 16.796 16.979 16.888 16.887C16.9793 16.7957 17.0833 16.75 17.2 16.75H18.175C18.2917 16.75 18.396 16.7957 18.488 16.887C18.5793 16.979 18.625 17.0833 18.625 17.2V18.175C18.625 18.2917 18.5793 18.396 18.488 18.488C18.396 18.5793 18.2917 18.625 18.175 18.625H17.2ZM17.2 14.875C17.0833 14.875 16.9793 14.8293 16.888 14.738C16.796 14.646 16.75 14.5417 16.75 14.425V13.45C16.75 13.3333 16.796 13.229 16.888 13.137C16.9793 13.0457 17.0833 13 17.2 13H18.175C18.2917 13 18.396 13.0457 18.488 13.137C18.5793 13.229 18.625 13.3333 18.625 13.45V14.425C18.625 14.5417 18.5793 14.646 18.488 14.738C18.396 14.8293 18.2917 14.875 18.175 14.875H17.2ZM19.075 16.75C18.9583 16.75 18.8543 16.7043 18.763 16.613C18.671 16.521 18.625 16.4167 18.625 16.3V15.325C18.625 15.2083 18.671 15.104 18.763 15.012C18.8543 14.9207 18.9583 14.875 19.075 14.875H20.05C20.1667 14.875 20.271 14.9207 20.363 15.012C20.4543 15.104 20.5 15.2083 20.5 15.325V16.3C20.5 16.4167 20.4543 16.521 20.363 16.613C20.271 16.7043 20.1667 16.75 20.05 16.75H19.075Z" fill="#2998FF"></path></svg>