<svg width="20" height="20" viewBox="0 0 24 24" fill="currentColor" xmlns="http://www.w3.org/2000/svg" class="ct-icon" data-testid="icon" style="min-width: 20px; min-height: 20px; color: currentcolor;"><path d="M11.9748 15.7751C11.6915 15.7751 11.4541 15.6711 11.2628 15.4631C11.0708 15.2544 10.9831 15.0168 10.9998 14.7501C11.0498 14.0501 11.2208 13.4334 11.5128 12.9001C11.8041 12.3668 12.2998 11.7918 12.9998 11.1751C13.6331 10.5918 14.1165 10.0668 14.4498 9.6001C14.7831 9.13343 14.9498 8.60843 14.9498 8.0251C14.9498 7.24176 14.6831 6.58743 14.1498 6.0621C13.6165 5.53743 12.8831 5.2751 11.9498 5.2751C11.3165 5.2751 10.7831 5.4041 10.3498 5.6621C9.91646 5.92076 9.56646 6.25843 9.29979 6.6751C9.13312 6.90843 8.92479 7.06243 8.67479 7.1371C8.42479 7.21243 8.18312 7.2001 7.94979 7.1001C7.68312 7.0001 7.50412 6.81243 7.41279 6.5371C7.32079 6.26243 7.34146 6.00843 7.47479 5.7751C7.94146 5.04176 8.54579 4.4541 9.28779 4.0121C10.0291 3.57076 10.9165 3.3501 11.9498 3.3501C13.5665 3.3501 14.8081 3.8041 15.6748 4.7121C16.5415 5.62076 16.9748 6.7001 16.9748 7.9501C16.9748 8.73343 16.8041 9.4251 16.4628 10.0251C16.1208 10.6251 15.6081 11.2501 14.9248 11.9001C14.2581 12.5168 13.7958 13.0251 13.5378 13.4251C13.2791 13.8251 13.1165 14.2668 13.0498 14.7501C13.0165 15.0501 12.8998 15.2961 12.6998 15.4881C12.4998 15.6794 12.2581 15.7751 11.9748 15.7751ZM11.9498 21.5001C11.5331 21.5001 11.1791 21.3541 10.8878 21.0621C10.5958 20.7708 10.4498 20.4168 10.4498 20.0001C10.4498 19.5834 10.5958 19.2294 10.8878 18.9381C11.1791 18.6461 11.5331 18.5001 11.9498 18.5001C12.3498 18.5001 12.6998 18.6461 12.9998 18.9381C13.2998 19.2294 13.4498 19.5834 13.4498 20.0001C13.4498 20.4168 13.2998 20.7708 12.9998 21.0621C12.6998 21.3541 12.3498 21.5001 11.9498 21.5001Z" fill="currentColor"></path></svg>