<?xml version="1.0" encoding="utf-8"?>
<!-- Generator: Adobe Illustrator 27.5.0, SVG Export Plug-In . SVG Version: 6.00 Build 0)  -->
<svg version="1.1" xmlns="http://www.w3.org/2000/svg" xmlns:xlink="http://www.w3.org/1999/xlink" x="0px" y="0px"
	 viewBox="0 0 500 500" style="enable-background:new 0 0 500 500;" xml:space="preserve">
<g id="BACKGROUND">
	<g>
		<rect style="fill:#FFFFFF;" width="500" height="500"/>
		<g>
			<path style="fill:#F5F8FF;" d="M62.318,257.145c-2.692-41.381-58.187-111.31-20.949-165.31s82.484-54,175.194-38
				c92.71,16,129.899-33.249,188.638-9.291c58.739,23.958,70.279,67.949,50.803,132.958c-19.476,65.009-6.736,123.801,3.933,169.4
				s-25.149,94.253-106.834,94.253c-81.685,0-121.985-87.323-197.495-90.403C80.097,347.672,66.696,324.455,62.318,257.145z"/>
			<path style="fill:#E7F0FF;" d="M395.007,358.032c8.339,84.572-79.971,36.8-185.074,62.572
				C68.762,455.22,99.249,381.935,48.125,348.467s-28.579-87.726,15.148-138.263c43.727-50.537,2.206-104.41,56.394-131.077
				c54.188-26.667,109.004,7.244,164.199,40.577s91.592-18.988,136.841,16.796C465.955,172.283,384.586,252.35,395.007,358.032z"/>
			<path style="fill:#F5F8FF;" d="M310.292,453.043c0,3.658-30.556,6.623-68.249,6.623s-68.249-2.965-68.249-6.623
				c0-3.658,30.556-6.623,68.249-6.623S310.292,449.385,310.292,453.043z"/>
		</g>
	</g>
</g>
<g id="OBJECTS">
	<g>
		<g>
			<g>
				<g>
					<rect x="292.249" y="123.912" style="fill:#5082DB;" width="174.069" height="159.803"/>
					<g>
						<g>
							<g>
								<g>
									<defs>
										<rect id="SVGID_1_" x="302.62" y="132.557" width="67.212" height="142.514"/>
									</defs>
									<clipPath id="SVGID_00000158007614316080236880000014669066530797100167_">
										<use xlink:href="#SVGID_1_"  style="overflow:visible;"/>
									</clipPath>
								</g>
							</g>
							<g>
								<g>
									<defs>
										
											<rect id="SVGID_00000114034892974506344990000013875132849925756069_" x="388.735" y="132.557" width="67.212" height="142.514"/>
									</defs>
									<clipPath id="SVGID_00000046322967476635730370000014935448496960689560_">
										<use xlink:href="#SVGID_00000114034892974506344990000013875132849925756069_"  style="overflow:visible;"/>
									</clipPath>
								</g>
							</g>
						</g>
						<g>
							<g>
								<rect x="302.62" y="132.557" style="fill:#AED5FE;" width="67.212" height="142.514"/>
								<g>
									<defs>
										
											<rect id="SVGID_00000114036479350966139250000006631217839085982634_" x="302.62" y="132.557" width="67.212" height="142.514"/>
									</defs>
									<clipPath id="SVGID_00000011715420669657892600000014065153144629286569_">
										<use xlink:href="#SVGID_00000114036479350966139250000006631217839085982634_"  style="overflow:visible;"/>
									</clipPath>
									<g style="clip-path:url(#SVGID_00000011715420669657892600000014065153144629286569_);">
										<g>
											
												<line style="fill:none;stroke:#E1ECFF;stroke-width:6;stroke-miterlimit:10;" x1="272.985" y1="199.795" x2="405.682" y2="84.527"/>
										</g>
										<g>
											
												<line style="fill:none;stroke:#E1ECFF;stroke-width:14;stroke-miterlimit:10;" x1="284.621" y1="211.994" x2="417.317" y2="96.726"/>
										</g>
									</g>
								</g>
							</g>
							<g>
								<rect x="388.735" y="132.557" style="fill:#AED5FE;" width="67.212" height="142.514"/>
								<g>
									<defs>
										
											<rect id="SVGID_00000164495764710317436230000004437572314718296496_" x="388.735" y="132.557" width="67.212" height="142.514"/>
									</defs>
									<clipPath id="SVGID_00000089555775859319401640000004650544183888838330_">
										<use xlink:href="#SVGID_00000164495764710317436230000004437572314718296496_"  style="overflow:visible;"/>
									</clipPath>
									<g style="clip-path:url(#SVGID_00000089555775859319401640000004650544183888838330_);">
										<g>
											
												<line style="fill:none;stroke:#E1ECFF;stroke-width:6;stroke-miterlimit:10;" x1="351.022" y1="199.795" x2="483.718" y2="84.527"/>
										</g>
										<g>
											
												<line style="fill:none;stroke:#E1ECFF;stroke-width:14;stroke-miterlimit:10;" x1="362.657" y1="211.994" x2="495.354" y2="96.726"/>
										</g>
									</g>
								</g>
							</g>
						</g>
						<g>
							<g>
								<g>
									<defs>
										
											<rect id="SVGID_00000176032480908165129540000011538449786571948929_" x="302.62" y="132.557" width="67.212" height="142.514"/>
									</defs>
									<clipPath id="SVGID_00000046318073879385549510000004796526012708533661_">
										<use xlink:href="#SVGID_00000176032480908165129540000011538449786571948929_"  style="overflow:visible;"/>
									</clipPath>
								</g>
							</g>
							<g>
								<g>
									<defs>
										
											<rect id="SVGID_00000158013356874716525180000004939799573535158923_" x="388.735" y="132.557" width="67.212" height="142.514"/>
									</defs>
									<clipPath id="SVGID_00000101075201885665145610000002790747477514779581_">
										<use xlink:href="#SVGID_00000158013356874716525180000004939799573535158923_"  style="overflow:visible;"/>
									</clipPath>
								</g>
							</g>
						</g>
					</g>
					<rect x="292.249" y="219.305" style="opacity:0.3;fill:#339FE0;" width="174.069" height="64.411"/>
				</g>
				<g>
					<polygon style="fill:none;stroke:#EAF3FF;stroke-miterlimit:10;" points="350.967,194.785 379.901,171.827 408.835,194.785 
											"/>
					<path style="fill:#F4406F;" d="M382.247,171.865c0,1.253-1.016,2.269-2.269,2.269c-1.253,0-2.269-1.016-2.269-2.269
						c0-1.253,1.016-2.269,2.269-2.269C381.231,169.596,382.247,170.612,382.247,171.865z"/>
					<g>
						<g>
							<path style="fill:#E3A214;" d="M417.274,235.626c0,2.9-2.351,5.251-5.251,5.251h-64.245c-2.9,0-5.251-2.351-5.251-5.251
								v-38.857c0-2.9,2.351-5.251,5.251-5.251h64.245c2.9,0,5.251,2.351,5.251,5.251V235.626z"/>
							<path style="fill:#FCBF31;" d="M415.684,234.688c0,2.838-2.301,5.139-5.139,5.139h-62.878c-2.838,0-5.139-2.301-5.139-5.139
								v-38.03c0-2.838,2.301-5.139,5.139-5.139h62.878c2.838,0,5.139,2.301,5.139,5.139V234.688z"/>
						</g>
						<g>
							
								<text transform="matrix(1 0 0 1 348.6172 229.8771)" style="fill:#FFFFFF; font-family:'Quicksand-Bold'; font-size:21.8014px;">OPEN</text>
							
								<text transform="matrix(1 0 0 1 357.4053 209.1236)" style="fill:#FFFFFF; font-family:'Satisfy-Regular'; font-size:16.7587px;">we are</text>
						</g>
					</g>
				</g>
			</g>
			<g>
				<path style="fill:#F4406F;" d="M465.46,81.058H293.107l-15.067,46.113v13.379c0,7.278,5.9,13.178,13.178,13.178
					c5.908,0,10.908-3.889,12.581-9.246c1.673,5.357,6.672,9.246,12.581,9.246c5.909,0,10.908-3.889,12.581-9.246
					c1.673,5.357,6.672,9.246,12.581,9.246c5.908,0,10.908-3.889,12.581-9.246c1.673,5.357,6.672,9.246,12.581,9.246
					c5.908,0,10.908-3.889,12.581-9.246c1.673,5.357,6.672,9.246,12.581,9.246c5.908,0,10.908-3.889,12.581-9.246
					c1.673,5.357,6.672,9.246,12.581,9.246c5.908,0,10.908-3.889,12.581-9.246c1.673,5.357,6.672,9.246,12.581,9.246
					c5.908,0,10.908-3.889,12.581-9.246c1.673,5.357,6.672,9.246,12.581,9.246c7.278,0,13.178-5.9,13.178-13.178v-13.379
					L465.46,81.058z"/>
				<path style="fill:#EAF3FF;" d="M336.437,81.058h-21.717l-10.92,46.113v17.311c1.673,5.357,6.672,9.246,12.581,9.246
					c5.909,0,10.908-3.889,12.581-9.246v-17.311L336.437,81.058z"/>
				<path style="fill:#EAF3FF;" d="M357.762,81.058l-3.64,46.113v17.311c1.673,5.357,6.672,9.246,12.581,9.246
					c5.908,0,10.908-3.889,12.581-9.246V81.058H357.762z"/>
				<path style="fill:#EAF3FF;" d="M404.445,127.171v17.311c1.673,5.357,6.672,9.246,12.581,9.246
					c5.908,0,10.908-3.889,12.581-9.246v-17.311l-7.28-46.113h-21.522L404.445,127.171z"/>
				<path style="fill:#EAF3FF;" d="M467.349,153.728c7.278,0,13.178-5.9,13.178-13.178v-13.379L465.46,81.058h-21.612l10.92,46.113
					v17.311C456.441,149.839,461.44,153.728,467.349,153.728z"/>
				<path style="opacity:0.3;fill:#339FE0;" d="M291.219,153.728c5.908,0,10.908-3.889,12.581-9.246
					c1.673,5.357,6.672,9.246,12.581,9.246c5.909,0,10.908-3.889,12.581-9.246c1.673,5.357,6.672,9.246,12.581,9.246
					c5.908,0,10.908-3.889,12.581-9.246c1.673,5.357,6.672,9.246,12.581,9.246c5.908,0,10.908-3.889,12.581-9.246
					c1.673,5.357,6.672,9.246,12.581,9.246c5.908,0,10.908-3.889,12.581-9.246c1.673,5.357,6.672,9.246,12.581,9.246
					c5.908,0,10.908-3.889,12.581-9.246c1.673,5.357,6.672,9.246,12.581,9.246c5.908,0,10.908-3.889,12.581-9.246
					c1.673,5.357,6.672,9.246,12.581,9.246c7.278,0,13.178-5.9,13.178-13.178v-13.379H278.041v13.379
					C278.041,147.828,283.941,153.728,291.219,153.728z"/>
			</g>
			<g>
				<g>
					<g>
						<path style="fill:#399FDD;" d="M436.257,256.162c0,0-17.459-7.622-23.629-15.823c-6.17-8.201,0.002-11.014,8.139-5.969
							c0,0-2.232-6.826,1.575-7.351C426.148,226.494,435.731,240.084,436.257,256.162z"/>
						<path style="fill:#69B2D3;" d="M417.484,238.571c-1.333,1.066-0.635,4.126,0.375,6.883
							c7.613,5.998,18.397,10.708,18.397,10.708C431.268,241.328,420.11,236.471,417.484,238.571z"/>
					</g>
					<g>
						<path style="fill:#399FDD;" d="M448.538,256.162c0,0,17.459-7.622,23.629-15.823c6.17-8.201-0.002-11.014-8.139-5.969
							c0,0,2.232-6.826-1.575-7.351C458.646,226.494,449.064,240.084,448.538,256.162z"/>
						<path style="fill:#69B2D3;" d="M467.311,238.571c-2.625-2.1-13.784,2.757-18.772,17.591c0,0,10.785-4.71,18.397-10.708
							C467.945,242.697,468.643,239.637,467.311,238.571z"/>
					</g>
					<g>
						<path style="fill:#69B2D3;" d="M440.589,256.162c-2.871,0.972-11.027-12.077-13.127-21.529
							c-2.1-9.452,0.788-18.772,7.876-11.946c0,0,0.131-12.734,5.907-13.259c5.776-0.525,6.957,15.622,6.957,15.622
							s4.594-5.776,8.401-3.676C460.411,223.475,457.26,250.517,440.589,256.162z"/>
						<g>
							<path style="fill:none;stroke:#399FDD;stroke-linecap:round;stroke-linejoin:round;stroke-miterlimit:10;" d="
								M441.114,215.861c0,0,1.707,19.954-0.525,40.301"/>
							<path style="fill:none;stroke:#399FDD;stroke-linecap:round;stroke-linejoin:round;stroke-miterlimit:10;" d="
								M431.793,228.201c0,0,3.363,12.848,9.099,24.934c0,0,8.361-10.887,13.349-25.59"/>
						</g>
					</g>
				</g>
				<g>
					<polygon style="fill:#EAF3FF;" points="462.117,281.703 421.86,281.703 415.734,250.085 468.243,250.085 					"/>
					<polygon style="fill:#AED5FE;" points="420.692,275.676 421.86,281.703 462.117,281.703 467.11,255.937 					"/>
				</g>
			</g>
			<g>
				<rect x="283.891" y="281.381" style="fill:#2E53AB;" width="190.784" height="22.722"/>
				<rect x="283.891" y="292.742" style="fill:#22458C;" width="190.784" height="11.361"/>
			</g>
		</g>
		<g>
			<g>
				<g>
					<path style="fill:#7DB6F9;" d="M266.439,418.555c0,0-2.144-23.104,8.664-47.773c8.158-18.619,16.015-27.578,22.317-25.741
						c6.301,1.838,1.05,14.178,5.776,13.39c4.726-0.788,21.266-17.002,34.394-13.621c13.127,3.381,2.625,14.495-4.463,22.853
						c-7.089,8.358,7.351,1.575,8.401,10.721C343.478,395.371,289.28,401.227,266.439,418.555z"/>
					<g>
						<path style="fill:none;stroke:#AED5FE;stroke-linecap:round;stroke-linejoin:round;stroke-miterlimit:10;" d="
							M329.713,353.968c0,0-36.494,17.066-63.274,64.587"/>
						<path style="fill:none;stroke:#AED5FE;stroke-linecap:round;stroke-linejoin:round;stroke-miterlimit:10;" d="M295.319,357.16
							c0,0-4,8.36-4.363,27.526c0,0,14.34-4.463,38.757-4.988"/>
						<path style="fill:none;stroke:#AED5FE;stroke-linecap:round;stroke-linejoin:round;stroke-miterlimit:10;" d="
							M305.057,371.014c0,0,12.048-6.329,23.343-8.831"/>
						<path style="fill:none;stroke:#AED5FE;stroke-linecap:round;stroke-linejoin:round;stroke-miterlimit:10;" d="
							M281.788,372.872c0,0-5.237,14.703-5.961,30.718c0,0,13.716-7.281,33.144-11.648"/>
					</g>
				</g>
				<g>
					<path style="fill:#AED5FE;" d="M268.014,411.729c0,0-15.753-46.646-1.575-85.415
						C266.439,326.313,282.191,355.018,268.014,411.729z"/>
					<path style="fill:none;stroke:#7DB6F9;stroke-linecap:round;stroke-linejoin:round;stroke-miterlimit:10;" d="M267.226,341.111
						c0,0,3.151,27.822,0.788,70.618"/>
				</g>
			</g>
			<g>
				<g>
					<path style="fill:#AED5FE;" d="M85.028,396.85c0,0-28.355-32.556-40.17-37.544s-14.064-0.76-18.116,4.463
						c-1.64,2.114-15.228-3.938-19.428,6.301c-4.201,10.239,4.591,12.939,14.44,15.753c7.351,2.1-7.089,6.564-2.1,14.965
						C24.642,409.19,38.819,407.877,85.028,396.85z"/>
					<g>
						<path style="fill:none;stroke:#7DB6F9;stroke-linecap:round;stroke-linejoin:round;stroke-miterlimit:10;" d="M13.352,372.862
							c0,0,21.529-1.742,71.676,23.988"/>
						<path style="fill:none;stroke:#7DB6F9;stroke-linecap:round;stroke-linejoin:round;stroke-miterlimit:10;" d="M29.105,396.85
							c0,0,19.387-3.861,50.257-2.85c0,0-18.489-19.467-39.755-28.394"/>
					</g>
				</g>
				<g>
					<path style="fill:#7DB6F9;" d="M93.254,397.936c0,0-3.676-42.52-21.573-68.65c-17.897-26.13-44.939-40.487-44.939-40.487
						s0.788,38.796,18.378,68.191C62.711,386.384,93.254,397.936,93.254,397.936z"/>
					<g>
						<path style="fill:none;stroke:#AED5FE;stroke-linecap:round;stroke-linejoin:round;stroke-miterlimit:10;" d="M39.607,308.889
							c0,0,33.518,33.125,53.647,89.047"/>
						<path style="fill:none;stroke:#AED5FE;stroke-linecap:round;stroke-linejoin:round;stroke-miterlimit:10;" d="M35.406,319.96
							c0,0,12.127,5.776,26.674,17.066c0,0-2.062-15.486-7.892-24.286"/>
						<path style="fill:none;stroke:#AED5FE;stroke-linecap:round;stroke-linejoin:round;stroke-miterlimit:10;" d="M45.633,343.368
							c0,0,11.562,2.803,26.791,10.045"/>
						<path style="fill:none;stroke:#AED5FE;stroke-linecap:round;stroke-linejoin:round;stroke-miterlimit:10;" d="M74.526,340.176
							c0,0,3.857,14.614,5.604,27.392c0,0-11.27-4.55-25.896-7.439"/>
						<path style="fill:none;stroke:#AED5FE;stroke-linecap:round;stroke-linejoin:round;stroke-miterlimit:10;" d="M67.182,374.044
							c0,0,13.636,5.517,22.567,14.705"/>
					</g>
				</g>
			</g>
			<g>
				<g>
					<g>
						<g>
							<rect x="76.121" y="123.912" style="fill:#5082DB;" width="180.13" height="273.049"/>
							<rect x="85.54" y="134.414" style="fill:#8FC6FF;" width="161.292" height="262.547"/>
						</g>
						<g>
							<rect x="192.456" y="194.756" style="fill:#7DB6F9;" width="17.707" height="20.821"/>
							<rect x="210.162" y="200.107" style="fill:#7DB6F9;" width="12.868" height="15.47"/>
							<rect x="235.327" y="195.652" style="fill:#7DB6F9;" width="11.504" height="19.924"/>
							<rect x="185.614" y="215.577" style="fill:#AED5FE;" width="61.217" height="3.728"/>
						</g>
						<g>
							<rect x="174.368" y="264.057" style="fill:#7DB6F9;" width="72.463" height="132.905"/>
							<g>
								<rect x="180.846" y="271.814" style="fill:#AED5FE;" width="65.985" height="36.8"/>
								<g>
									<defs>
										
											<rect id="SVGID_00000079447928123849659870000016070649282912712377_" x="180.846" y="271.814" width="65.985" height="36.8"/>
									</defs>
									<clipPath id="SVGID_00000183958635495257777540000004320971809542880417_">
										<use xlink:href="#SVGID_00000079447928123849659870000016070649282912712377_"  style="overflow:visible;"/>
									</clipPath>
									<g style="clip-path:url(#SVGID_00000183958635495257777540000004320971809542880417_);">
										
											<line style="fill:none;stroke:#E1ECFF;stroke-width:3;stroke-miterlimit:10;" x1="175.769" y1="295.847" x2="209.573" y2="266.124"/>
										
											<line style="fill:none;stroke:#E1ECFF;stroke-width:6;stroke-miterlimit:10;" x1="174.123" y1="309.021" x2="220.17" y2="268.534"/>
									</g>
								</g>
							</g>
							<g>
								<rect x="180.846" y="314.395" style="fill:#AED5FE;" width="65.985" height="50.886"/>
								<g>
									<defs>
										
											<rect id="SVGID_00000145031772704177328990000010237012211825695397_" x="180.846" y="314.395" width="65.985" height="50.886"/>
									</defs>
									<clipPath id="SVGID_00000160910107139241066420000012810150441386854039_">
										<use xlink:href="#SVGID_00000145031772704177328990000010237012211825695397_"  style="overflow:visible;"/>
									</clipPath>
									<g style="clip-path:url(#SVGID_00000160910107139241066420000012810150441386854039_);">
										
											<line style="fill:none;stroke:#E1ECFF;stroke-width:3;stroke-miterlimit:10;" x1="175.769" y1="333.518" x2="209.573" y2="303.795"/>
										
											<line style="fill:none;stroke:#E1ECFF;stroke-width:6;stroke-miterlimit:10;" x1="174.123" y1="346.692" x2="220.17" y2="306.205"/>
									</g>
								</g>
							</g>
						</g>
					</g>
					<g>
						<rect x="85.54" y="134.414" style="fill:#6AA0EF;" width="80.646" height="262.547"/>
						<path style="fill:#FCBF31;" d="M155.671,245.986c0,2.473-2.005,4.478-4.478,4.478c-2.473,0-4.478-2.005-4.478-4.478
							c0-2.473,2.005-4.478,4.478-4.478C153.666,241.508,155.671,243.513,155.671,245.986z"/>
						<g>
							<rect x="95.057" y="142.991" style="fill:#5082DB;" width="61.611" height="84.365"/>
							<rect x="98.558" y="146.141" style="fill:#5A92E5;" width="54.61" height="78.064"/>
						</g>
						<g>
							<rect x="95.057" y="266.432" style="fill:#5082DB;" width="61.611" height="50.19"/>
							<rect x="98.558" y="270.064" style="fill:#5A92E5;" width="54.61" height="42.926"/>
						</g>
						<g>
							<rect x="95.057" y="324.192" style="fill:#5082DB;" width="61.611" height="50.19"/>
							<rect x="98.558" y="327.824" style="fill:#5A92E5;" width="54.61" height="42.926"/>
						</g>
						<rect x="84.489" y="134.414" style="fill:#2E53AB;" width="3.063" height="262.547"/>
					</g>
					<g>
						<rect x="192.965" y="174.134" style="fill:#7DB6F9;" width="8.795" height="9.175"/>
						<rect x="205.136" y="166.445" style="fill:#7DB6F9;" width="12.509" height="16.864"/>
						<rect x="223.03" y="170.296" style="fill:#7DB6F9;" width="8.346" height="13.014"/>
						<rect x="235.327" y="164.345" style="fill:#7DB6F9;" width="11.504" height="18.965"/>
						<rect x="185.614" y="183.309" style="fill:#AED5FE;" width="61.217" height="3.728"/>
					</g>
					<path style="opacity:0.3;fill:#339FE0;" d="M76.121,167.343c1.46-1.609,2.587-3.526,3.25-5.651
						c1.924,6.162,7.674,10.634,14.469,10.634c6.795,0,12.545-4.472,14.469-10.634c1.924,6.162,7.674,10.634,14.469,10.634
						s12.545-4.472,14.469-10.634c1.924,6.162,7.674,10.634,14.469,10.634c6.795,0,12.546-4.472,14.469-10.634
						c1.924,6.162,7.674,10.634,14.469,10.634c6.795,0,12.545-4.472,14.469-10.634c1.924,6.162,7.674,10.634,14.469,10.634
						c6.795,0,12.545-4.472,14.469-10.634c1.924,6.162,7.674,10.634,14.469,10.634c6.795,0,12.545-4.472,14.469-10.634
						c0.663,2.125,1.79,4.042,3.25,5.651v-43.43H76.121V167.343z"/>
				</g>
				<g>
					<path style="fill:#F4406F;" d="M265.297,67.727H67.074l-17.328,53.035v15.387c0,8.37,6.786,15.156,15.156,15.156
						c6.795,0,12.545-4.472,14.469-10.634c1.924,6.161,7.674,10.634,14.469,10.634c6.795,0,12.545-4.472,14.469-10.634
						c1.924,6.162,7.674,10.634,14.469,10.634s12.545-4.472,14.469-10.634c1.924,6.161,7.674,10.634,14.469,10.634
						c6.795,0,12.546-4.472,14.469-10.634c1.924,6.161,7.674,10.634,14.469,10.634c6.795,0,12.545-4.472,14.469-10.634
						c1.924,6.162,7.674,10.634,14.469,10.634c6.795,0,12.545-4.472,14.469-10.634c1.924,6.161,7.674,10.634,14.469,10.634
						c6.795,0,12.545-4.472,14.469-10.634c1.924,6.161,7.674,10.634,14.469,10.634c8.371,0,15.156-6.786,15.156-15.156v-15.387
						L265.297,67.727z"/>
					<path style="fill:#EAF3FF;" d="M116.907,67.727H91.93l-12.559,53.035v19.91c1.924,6.161,7.674,10.634,14.469,10.634
						c6.795,0,12.545-4.472,14.469-10.634v-19.91L116.907,67.727z"/>
					<path style="fill:#EAF3FF;" d="M141.434,67.727l-4.186,53.035v19.91c1.924,6.161,7.674,10.634,14.469,10.634
						c6.795,0,12.546-4.472,14.469-10.634V67.727H141.434z"/>
					<path style="fill:#EAF3FF;" d="M195.124,120.762v19.91c1.924,6.162,7.674,10.634,14.469,10.634
						c6.795,0,12.545-4.472,14.469-10.634v-19.91l-8.373-53.035h-24.752L195.124,120.762z"/>
					<path style="fill:#EAF3FF;" d="M267.469,151.305c8.371,0,15.156-6.786,15.156-15.156v-15.387l-17.328-53.035h-24.856
						L253,120.762v19.91C254.924,146.833,260.674,151.305,267.469,151.305z"/>
					<path style="opacity:0.3;fill:#339FE0;" d="M64.902,151.305c6.795,0,12.545-4.472,14.469-10.634
						c1.924,6.161,7.674,10.634,14.469,10.634c6.795,0,12.545-4.472,14.469-10.634c1.924,6.162,7.674,10.634,14.469,10.634
						s12.545-4.472,14.469-10.634c1.924,6.161,7.674,10.634,14.469,10.634c6.795,0,12.546-4.472,14.469-10.634
						c1.924,6.161,7.674,10.634,14.469,10.634c6.795,0,12.545-4.472,14.469-10.634c1.924,6.162,7.674,10.634,14.469,10.634
						c6.795,0,12.545-4.472,14.469-10.634c1.924,6.161,7.674,10.634,14.469,10.634c6.795,0,12.545-4.472,14.469-10.634
						c1.924,6.161,7.674,10.634,14.469,10.634c8.371,0,15.156-6.786,15.156-15.156v-15.387H49.746v15.387
						C49.746,144.52,56.532,151.305,64.902,151.305z"/>
				</g>
				<rect x="63.967" y="396.962" style="fill:#2E53AB;" width="204.437" height="16.278"/>
				<rect x="46.474" y="412.239" style="fill:#22458C;" width="239.424" height="16.278"/>
			</g>
		</g>
		<g>
			<path style="fill:#FCD3B3;" d="M199.891,235.148c0,0-12.733,42.533-10.633,46.602c2.1,4.07,29.901,28.224,31.885,27.83
				c1.984-0.394,4.459-5.815,3.615-10.128c0,0-17.371-19.146-19.084-21.641c-1.713-2.494,6.688-20.507,6.295-24.365
				C211.575,249.588,199.891,235.148,199.891,235.148z"/>
			<g>
				<g>
					<path style="fill:#F4406F;" d="M251.613,437.31c0,0-3.039,11.421-1.454,13.39c1.585,1.969,20.882,2.232,25.608,0.788
						c4.726-1.444-0.788-6.698-6.695-6.631c0,0-6.143-3.351-7.483-4.444s-0.788-3.628-2.363-3.759
						C257.652,436.522,251.613,437.31,251.613,437.31z"/>
					<path style="fill:none;stroke:#EAF3FF;stroke-linecap:round;stroke-linejoin:round;stroke-miterlimit:10;" d="M258.177,444.521
						c0,0,1.149-3.426,4.513-3.35"/>
					<path style="fill:none;stroke:#EAF3FF;stroke-linecap:round;stroke-linejoin:round;stroke-miterlimit:10;" d="M262.69,446.236
						c0,0,1.042-2.923,3.647-2.905"/>
					<path style="fill:#EAF3FF;" d="M256.054,444.541c0,0.936-0.759,1.695-1.695,1.695s-1.695-0.759-1.695-1.695
						c0-0.936,0.759-1.695,1.695-1.695S256.054,443.605,256.054,444.541z"/>
					<path style="fill:#EAF3FF;" d="M249.705,448.708c0.021,0.908,0.155,1.619,0.455,1.991c1.585,1.969,20.882,2.232,25.608,0.788
						c4.663-1.425-0.643-6.555-6.46-6.627c-2.082,1.95-1.154,5.052-1.154,5.052C258.831,450.8,252.703,449.587,249.705,448.708z"/>
				</g>
				<g>
					<path style="fill:#F4406F;" d="M208.261,439.585c0,0-3.106,6.834-3.883,8.076c0,0-4.038,0.155-4.349,6.368
						c0,0,6.212,3.262,17.395,0l-0.777-14.444H208.261z"/>
					<path style="fill:none;stroke:#EAF3FF;stroke-linecap:round;stroke-linejoin:round;stroke-miterlimit:10;" d="M214.785,446.729
						c0,0-3.144-3.199-9.26-1.289"/>
					<path style="fill:none;stroke:#EAF3FF;stroke-linecap:round;stroke-linejoin:round;stroke-miterlimit:10;" d="M214.785,442.555
						c0,0-3.18-2.014-7.492-0.862"/>
					<path style="fill:#EAF3FF;" d="M200.03,454.029c0,0,6.212,3.262,17.395,0l-0.191-3.56c-0.413,0.862-0.921,1.576-1.517,1.728
						c0,0,0-4.69-11.338-4.535C204.379,447.661,200.341,447.817,200.03,454.029z"/>
				</g>
				<g>
					<path style="fill:#4A8AEC;" d="M216.169,293.434l36.494,0.233c0,0,7.2,79.748,7.725,88.937
						c0.525,9.189,3.827,51.293,2.777,54.706c-1.05,3.413-12.865,2.888-13.652,1.838c-0.788-1.05-7.503-45.517-8.028-50.505
						s-5.1-37.973-5.1-37.973s-5.251,28.092-6.564,34.656c-1.313,6.564-9.452,54.085-9.452,54.085
						c-3.676,3.676-14.178,1.838-15.228,0s2.235-55.395,2.15-61.699C207.1,363.272,216.169,293.434,216.169,293.434z"/>
					<g>
						<g>
							<g>
								<path style="fill:none;stroke:#9ED3F5;stroke-linecap:round;stroke-linejoin:round;" d="M219.582,293.667
									c0,0-0.107,0.707-0.291,1.976"/>
								<path style="fill:none;stroke:#9ED3F5;stroke-linecap:round;stroke-linejoin:round;stroke-dasharray:4.0956,4.0956;" d="
									M218.721,299.694c-0.767,5.572-1.905,14.355-2.814,23.539c-0.956,9.667-4.343,51.065-4.868,56.316
									c-0.439,4.388-3.219,43.942-4.121,56.826"/>
								<path style="fill:none;stroke:#9ED3F5;stroke-linecap:round;stroke-linejoin:round;" d="M206.775,438.422
									c-0.089,1.276-0.139,1.991-0.139,1.991"/>
							</g>
						</g>
						<g>
							<g>
								<path style="fill:none;stroke:#9ED3F5;stroke-linecap:round;stroke-linejoin:round;" d="M237.517,337.812
									c0,0,0.103,0.715,0.284,1.977"/>
								<path style="fill:none;stroke:#9ED3F5;stroke-linecap:round;stroke-linejoin:round;stroke-dasharray:3.9381,3.9381;" d="
									M238.358,343.685c1.703,11.92,5.446,38.32,6.035,44.17c0.627,6.218,4.075,36.704,5.319,47.675"/>
								<path style="fill:none;stroke:#9ED3F5;stroke-linecap:round;stroke-linejoin:round;" d="M249.934,437.489
									c0.144,1.267,0.225,1.984,0.225,1.984"/>
							</g>
						</g>
						<path style="fill:none;stroke:#9ED3F5;stroke-linecap:round;stroke-linejoin:round;stroke-miterlimit:10;" d="
							M224.308,295.797c0,0,1.838,12.34,0,13.915c-1.838,1.575-7.147,2.1-7.147,2.1"/>
						<polyline style="fill:none;stroke:#9ED3F5;stroke-linecap:round;stroke-linejoin:round;stroke-miterlimit:10;" points="
							248.725,295.797 250.16,308.137 254.359,311.812 						"/>
						<path style="fill:none;stroke:#9ED3F5;stroke-linecap:round;stroke-linejoin:round;stroke-miterlimit:10;" d="
							M236.385,350.669c0,0,2.626-32.818,2.363-54.872"/>
						<path style="fill:none;stroke:#9ED3F5;stroke-linecap:round;stroke-linejoin:round;stroke-miterlimit:10;" d="
							M242.687,293.667c0,0,1.05,12.895,0,15.52c-1.05,2.625-4.137,2.625-4.137,2.625"/>
					</g>
				</g>
			</g>
			<g>
				<path style="fill:none;stroke:#E3A214;stroke-width:2;stroke-linecap:round;stroke-linejoin:round;stroke-miterlimit:10;" d="
					M218.138,284.786c0,0-14.446-2.791-14.693,0.544c-0.247,3.335,4.408,10.819,6.44,9.866
					C211.918,294.243,218.138,284.786,218.138,284.786z"/>
				<path style="fill:none;stroke:#FCBF31;stroke-width:2;stroke-linecap:round;stroke-linejoin:round;stroke-miterlimit:10;" d="
					M219.582,284.855c0,0-9.539-11.202-11.815-8.752c-2.275,2.451-3.314,11.202-1.132,11.727
					C208.818,288.355,219.582,284.855,219.582,284.855z"/>
			</g>
			<g>
				<path style="fill:#FCD3B3;" d="M293.45,196.315c0.463-1.138-3.941-1.249-4.816-2.825c-0.875-1.575-2.451-8.529-3.763-11.09
					c-1.313-2.561,2.013-2.649,4.376,1.727c0,0,0.437,1.225,0.437-3.151c0-4.376,1.313-9.889,2.363-10.327
					c1.05-0.438,0.525,9.977,1.138,11.027c0.613,1.05,1.138-11.902,3.151-12.34c2.013-0.438,0.525,9.977,0.875,10.852
					c0.35,0.875,2.013-8.402,3.238-8.752c1.225-0.35-0.525,9.235-0.525,10.963s2.538-6.062,3.588-5.624
					c1.05,0.438-2.188,14.768-2.275,19.318c-0.087,4.551-0.7,34.153-3.238,37.479c-2.538,3.326-39.032,17.416-43.233,15.753
					c-4.201-1.663-6.349-19.078,1.026-21.179c7.375-2.1,25.841-2.8,27.767-3.851C285.482,223.246,290.212,204.279,293.45,196.315z"
					/>
				<g>
					<path style="fill:#F4406F;" d="M222.958,226.014c0,0-18.078,2.833-21.754,5.852c-3.676,3.019-16.015,24.942-15.228,25.992
						c0.788,1.05,6.695,4.857,12.34,6.564c5.645,1.707,10.633,1.575,11.421,0.919c0.788-0.656,1.05-6.695,1.05-6.695
						s3.982,15.184,4.857,19.56c0.875,4.376-2.1,17.328-1.225,19.078c0.875,1.75,6.826,5.776,18.378,5.426
						c11.552-0.35,19.837-4.551,20.596-6.301s-1.167-22.054-0.992-29.055c0.175-7.001,0.748-16.103,0.748-16.103
						s10.279,2.976,11.504,2.451c1.225-0.525,5.601-6.826,6.301-13.653c0.7-6.826-0.7-13.827-2.1-14.878
						c-1.4-1.05-23.904,0.636-31.38,0.843C229.997,226.222,222.958,226.014,222.958,226.014z"/>
					<g>
						<path style="fill:none;stroke:#AD2556;stroke-linecap:round;stroke-linejoin:round;stroke-miterlimit:10;" d="
							M200.561,232.494c0,0,5.303,2.176,10.226,26.152"/>
						<path style="fill:none;stroke:#AD2556;stroke-linecap:round;stroke-linejoin:round;stroke-miterlimit:10;" d="
							M247.374,225.538c0,0-1.879,5.935,5.775,25.714"/>
					</g>
					<g>
						<path style="fill:none;stroke:#F3809F;stroke-linecap:round;stroke-linejoin:round;stroke-miterlimit:10;" d="
							M187.059,254.713c0,0,8.4,7.07,23.219,9.068"/>
						<path style="fill:none;stroke:#F3809F;stroke-linecap:round;stroke-linejoin:round;stroke-miterlimit:10;" d="
							M261.845,253.447c0,0,7.534-10.406,4.383-28.617"/>
						<path style="fill:none;stroke:#F3809F;stroke-linecap:round;stroke-linejoin:round;stroke-miterlimit:10;" d="
							M220.573,226.416c0,0,2.9,6.311,10.144,6.077c7.244-0.234,8.05-6.524,8.05-6.524"/>
					</g>
				</g>
			</g>
			<g>
				<g>
					<path style="fill:#FCD3B3;" d="M224.486,209.029c0,0,1.547,9.634-1.528,16.985c0,0,7.033,6.564,14.516,0
						c0,0-1.575-4.682-0.525-13.237L224.486,209.029z"/>
					<path style="fill:#EDA6A6;" d="M224.486,209.029c0,0,0.526,3.319,0.346,7.541c1.917,2.754,4.822,5.976,7.944,5.976
						c1.469,0,2.773-0.601,3.904-1.466c-0.148-2.126-0.148-4.903,0.269-8.303L224.486,209.029z"/>
				</g>
				<g>
					<path style="fill:#214489;" d="M252.014,189.26c0,0,3.407,1.71,7.345,1.056s0.314,6.807-6.21,8.36
						C253.149,198.676,250.379,194.831,252.014,189.26z"/>
					<path style="fill:#FCD3B3;" d="M243.212,182.245c12.996,4.463,11.158,16.278,7.483,24.417
						c-3.11,6.887-9.55,14.046-17.164,11.946c-7.614-2.1-14.537-9.734-10.141-24.154
						C226.671,183.689,234.63,179.298,243.212,182.245z"/>
					<path style="fill:#2E53AB;" d="M224.268,192.156c0,0,4.175,0.066,9.262-6.236c0,0,6.859,5.251,16.967,5.448
						c10.108,0.197,12.143-6.388,7.811-7.307c0,0,4.463-7.396,0.263-9.234c-4.201-1.838-8.992,3.282-16.409,1.444
						c-7.417-1.838-12.591-2.494-13.248,2.429c0,0-3.096-1.969-5.262,0.787c-2.166,2.757-0.553,15.972-0.553,15.972L224.268,192.156
						z"/>
					<g>
						<path style="fill:#EDA6A6;" d="M222.084,201.139l2.184-8.983c0,0-0.21-6.078-3.734-5.579
							C216.192,187.191,214.609,200.605,222.084,201.139z"/>
						<path style="fill:#FCD3B3;" d="M220.534,186.577c-1.426,0.202-2.551,1.787-3.159,3.84c2.635-1.17,5.284,0.608,6.827,2.011
							l0.066-0.272C224.268,192.156,224.059,186.078,220.534,186.577z"/>
					</g>
					<g>
						<path style="fill:#EDA6A6;" d="M247.374,211.591l4.449-8.104c0,0,4.256-4.344,6.52-1.598
							C261.134,205.273,253.252,216.241,247.374,211.591z"/>
						<path style="fill:#FCD3B3;" d="M258.344,201.889c-2.265-2.746-6.52,1.598-6.52,1.598l-0.136,0.248
							c2.087,0.004,5.232,0.491,6.386,3.143C259.019,204.945,259.264,203.005,258.344,201.889z"/>
					</g>
					<g>
						<path style="fill:none;stroke:#C67D7D;stroke-linecap:round;stroke-linejoin:round;stroke-miterlimit:10;" d="
							M242.862,194.454c0,0-4.288,5.251-4.726,7.264c0,0,3.063,0.963,3.151,1.838c0.088,0.875-4.201,2.888-4.201,2.888"/>
						<path style="fill:#172E56;" d="M234.582,196.188c-0.194,0.792-0.822,1.319-1.403,1.177c-0.581-0.142-0.895-0.9-0.701-1.692
							s0.822-1.319,1.403-1.177C234.463,194.638,234.776,195.396,234.582,196.188z"/>
						<path style="fill:#172E56;" d="M246.016,200.738c-0.194,0.792-0.822,1.319-1.403,1.177c-0.581-0.142-0.895-0.9-0.701-1.692
							c0.194-0.792,0.822-1.319,1.403-1.177C245.896,199.189,246.21,199.946,246.016,200.738z"/>
						<path style="fill:#2E53AB;" d="M232.731,191.303c0.609-0.704,1.65-1.394,2.582-1.552c0.59-0.156,1.12-0.33,1.721-0.102
							c0.285,0.101,1.227,0.659,1.158,1.057c-0.127,0.738-2.226,0.368-2.711,0.294C234.858,190.879,233.02,191.629,232.731,191.303z
							"/>
						<path style="fill:#2E53AB;" d="M246.518,193.985c0.238-0.141,0.816-0.221,1.26-0.045c0.677,0.269,0.931,0.759,1.197,1.402
							c0.203,0.527,0.366,1.091,0.355,1.664c-0.002,0.12-0.203,1.329-0.283,1.139c-0.095-0.008-0.394-1.027-0.441-1.115
							c-0.2-0.375-0.4-0.728-0.703-1.026c-0.264-0.231-0.675-0.436-0.84-0.761C246.974,195.126,246.073,194.454,246.518,193.985
							C246.504,193.999,246.481,194.007,246.518,193.985z"/>
						<path style="fill:none;stroke:#C67D7D;stroke-linecap:round;stroke-linejoin:round;stroke-miterlimit:10;" d="
							M230.216,205.743c0,0,1.51,5.514,7.942,4.988"/>
						<path style="fill:#EDA6A6;" d="M232.539,201.751c-0.653,1.852-2.933,2.736-5.092,1.975c-2.159-0.762-3.379-2.88-2.726-4.732
							s2.933-2.736,5.092-1.975C231.972,197.781,233.193,199.899,232.539,201.751z"/>
						<path style="fill:#EDA6A6;" d="M249.982,208.256c-0.653,1.852-2.933,2.736-5.092,1.975c-2.159-0.762-3.379-2.88-2.726-4.732
							c0.653-1.852,2.933-2.736,5.092-1.975C249.415,204.286,250.635,206.404,249.982,208.256z"/>
					</g>
				</g>
			</g>
			<g>
				<path style="fill:#FCBF31;" d="M218.27,226.836c0,0,5.834,13.564,6.855,14.439c1.021,0.875,12.785,0,13.642-1.225
					c0.857-1.225,2.085-14.511,2.085-14.511s2.048-1.239,4.198,0c0,0,1.674,17.487,2.325,19.062
					c0.651,1.575,6.142,7.892,6.985,8.847c0.843,0.955,1.32,31.876,1.431,40.22c0.112,8.344,8.926,44.575,8.632,46.851
					c-0.294,2.275-15.786,7.001-30.269,7.001c-14.483,0-26.385-6.126-26.385-7.351s10.152-44.108,10.502-48.834
					c0.35-4.726-8.294-30.491-7.993-32.086c0.301-1.596,4.842-11.657,5.367-13.677c0.525-2.02-3.489-16.438-3.933-17.368
					C211.268,227.272,216.344,225.349,218.27,226.836z"/>
				<path style="fill:#EAF3FF;" d="M244.802,261.307c0.004,4.807-3.89,8.707-8.697,8.711c-4.807,0.004-8.707-3.89-8.711-8.697
					c-0.004-4.807,3.89-8.707,8.697-8.711C240.898,252.607,244.798,256.5,244.802,261.307z"/>
				<path style="fill:none;stroke:#E3A214;stroke-linecap:round;stroke-linejoin:round;stroke-miterlimit:10;" d="M247.17,270.018
					c0,0-5.942,9.954-18.749,11.847c0,0,6.857,1.734,16.381,0"/>
			</g>
		</g>
	</g>
</g>
</svg>
